<svg id="visual" viewBox="0 0 900 600" width="900" height="600" xmlns="http://www.w3.org/2000/svg" xmlns:xlink="http://www.w3.org/1999/xlink" version="1.1"><rect x="0" y="0" width="900" height="600" fill="#f3f4f6"></rect><path d="M0 477L18.8 487C37.7 497 75.3 517 112.8 518.3C150.3 519.7 187.7 502.3 225.2 491.5C262.7 480.7 300.3 476.3 337.8 476.3C375.3 476.3 412.7 480.7 450.2 484.8C487.7 489 525.3 493 562.8 483.2C600.3 473.3 637.7 449.7 675.2 443.5C712.7 437.3 750.3 448.7 787.8 461.8C825.3 475 862.7 490 881.3 497.5L900 505L900 601L881.3 601C862.7 601 825.3 601 787.8 601C750.3 601 712.7 601 675.2 601C637.7 601 600.3 601 562.8 601C525.3 601 487.7 601 450.2 601C412.7 601 375.3 601 337.8 601C300.3 601 262.7 601 225.2 601C187.7 601 150.3 601 112.8 601C75.3 601 37.7 601 18.8 601L0 601Z" fill="#ffffff" stroke-linecap="round" stroke-linejoin="miter"></path></svg>